<?xml version="1.0" encoding="UTF-8"?>
<svg width="400" height="400" viewBox="0 0 400 400" fill="none" xmlns="http://www.w3.org/2000/svg">
  <g transform="translate(100,100)">
    <defs>
      <linearGradient id="gradient" x1="0" y1="0" x2="160" y2="200" gradientUnits="userSpaceOnUse">
        <stop offset="0%" style="stop-color:#4F46E5"/>
        <stop offset="100%" style="stop-color:#EF4444"/>
      </linearGradient>
    </defs>
    <path d="M100 0H0V200H100C133.137 200 160 173.137 160 140V60C160 26.8629 133.137 0 100 0Z" fill="url(#gradient)" opacity="0.8" transform="translate(5,5)"/>
    <path d="M100 0H0V200H100C133.137 200 160 173.137 160 140V60C160 26.8629 133.137 0 100 0Z" fill="url(#gradient)" opacity="0.6" transform="translate(10,10)"/>
    <path d="M100 0H0V200H100C133.137 200 160 173.137 160 140V60C160 26.8629 133.137 0 100 0Z" fill="url(#gradient)" opacity="0.4" transform="translate(15,15)"/>
    <path d="M100 0H0V200H100C133.137 200 160 173.137 160 140V60C160 26.8629 133.137 0 100 0Z" fill="url(#gradient)" opacity="0.2" transform="translate(20,20)"/>
    <path d="M100 0H0V200H100C133.137 200 160 173.137 160 140V60C160 26.8629 133.137 0 100 0Z" fill="url(#gradient)"/>
  </g>
</svg>